<?xml version="1.0" encoding="UTF-8"?>
<svg width="116px" height="32px" viewBox="0 0 116 32" version="1.1" xmlns="http://www.w3.org/2000/svg" xmlns:xlink="http://www.w3.org/1999/xlink">
    <!-- Generator: Sketch 48.2 (47327) - http://www.bohemiancoding.com/sketch -->
    <title>logo</title>
    <desc>Created with Sketch.</desc>
    <defs></defs>
    <g id="ExportIcons" stroke="none" stroke-width="1" fill="none" fill-rule="evenodd">
        <g id="logo">
            <path d="M7.6,3.6 L7.6,0.408 L9.208,0.408 L9.208,17.976 L5.992,17.976 L5.992,14.784 L4.408,14.784 L4.408,11.592 L2.8,11.592 L2.8,17.976 L-0.392,17.976 L-0.392,0.408 L2.8,0.408 L2.8,3.6 L4.408,3.6 L4.408,8.4 L5.992,8.4 L5.992,3.6 L7.6,3.6 Z M14.14,6.792 L14.14,18 L10.924,18 L10.924,6.792 L14.14,6.792 Z M10.924,5.208 L10.924,3.6 L12.532,3.6 L12.532,1.992 L14.14,1.992 L14.14,5.208 L10.924,5.208 Z M19.072,18 L15.856,18 L15.856,6.792 L22.264,6.792 L22.264,8.4 L23.872,8.4 L23.872,18 L20.656,18 L20.656,8.4 L19.072,8.4 L19.072,18 Z M30.388,1.992 L30.388,6.792 L31.996,6.792 L31.996,8.4 L30.388,8.4 L30.388,16.392 L31.996,16.392 L31.996,18 L27.196,18 L27.196,8.4 L25.588,8.4 L25.588,6.792 L27.196,6.792 L27.196,3.6 L28.78,3.6 L28.78,1.992 L30.388,1.992 Z M41.728,6.792 L41.728,13.2 L36.928,13.2 L36.928,16.392 L38.512,16.392 L38.512,14.808 L41.728,14.808 L41.728,18 L35.32,18 L35.32,16.392 L33.712,16.392 L33.712,8.4 L35.32,8.4 L35.32,6.792 L41.728,6.792 Z M38.512,8.4 L36.928,8.4 L36.928,11.592 L38.512,11.592 L38.512,8.4 Z M46.66,18 L43.444,18 L43.444,6.792 L49.852,6.792 L49.852,8.4 L51.46,8.4 L51.46,18 L48.244,18 L48.244,8.4 L46.66,8.4 L46.66,18 Z M57.976,6.792 L57.976,1.992 L61.192,1.992 L61.192,18 L54.784,18 L54.784,16.392 L53.176,16.392 L53.176,8.4 L54.784,8.4 L54.784,6.792 L57.976,6.792 Z M54.784,14.808 L57.976,14.808 L57.976,10.008 L56.392,10.008 L56.392,11.592 L54.784,11.592 L54.784,14.808 Z M69.316,6.792 L69.316,8.4 L70.924,8.4 L70.924,16.392 L69.316,16.392 L69.316,18 L64.516,18 L64.516,16.392 L62.908,16.392 L62.908,8.4 L64.516,8.4 L64.516,6.792 L69.316,6.792 Z M66.124,16.392 L67.708,16.392 L67.708,8.4 L66.124,8.4 L66.124,16.392 Z M80.764,9.984 L80.764,17.976 L77.572,17.976 L77.572,0.408 L85.564,0.408 L85.564,1.992 L83.956,1.992 L83.956,3.6 L80.764,3.6 L80.764,8.4 L83.956,8.4 L83.956,9.984 L80.764,9.984 Z M91.664,6.792 L91.664,8.4 L93.272,8.4 L93.272,18 L85.28,18 L85.28,13.2 L86.864,13.2 L86.864,11.592 L90.08,11.592 L90.08,8.4 L88.472,8.4 L88.472,10.008 L85.28,10.008 L85.28,8.4 L86.864,8.4 L86.864,6.792 L91.664,6.792 Z M86.864,16.392 L90.08,16.392 L90.08,13.2 L88.472,13.2 L88.472,14.808 L86.864,14.808 L86.864,16.392 Z M98.204,18 L94.988,18 L94.988,6.792 L101.396,6.792 L101.396,8.4 L103.004,8.4 L103.004,18 L99.788,18 L99.788,8.4 L98.204,8.4 L98.204,18 Z M112.712,8.4 L112.712,10.008 L109.52,10.008 L109.52,8.4 L107.912,8.4 L107.912,11.592 L111.104,11.592 L111.104,13.2 L112.712,13.2 L112.712,16.392 L111.104,16.392 L111.104,18 L106.304,18 L106.304,16.392 L104.72,16.392 L104.72,14.808 L107.912,14.808 L107.912,16.392 L109.52,16.392 L109.52,13.2 L106.304,13.2 L106.304,11.592 L104.72,11.592 L104.72,8.4 L106.304,8.4 L106.304,6.792 L111.104,6.792 L111.104,8.4 L112.712,8.4 Z" id="Nintendo-Fans" fill="#2C4B7B"></path>
            <path d="M7.6,2.6 L7.6,-0.592 L9.208,-0.592 L9.208,16.976 L5.992,16.976 L5.992,13.784 L4.408,13.784 L4.408,10.592 L2.8,10.592 L2.8,16.976 L-0.392,16.976 L-0.392,-0.592 L2.8,-0.592 L2.8,2.6 L4.408,2.6 L4.408,7.4 L5.992,7.4 L5.992,2.6 L7.6,2.6 Z M14.14,5.792 L14.14,17 L10.924,17 L10.924,5.792 L14.14,5.792 Z M10.924,4.208 L10.924,2.6 L12.532,2.6 L12.532,0.992 L14.14,0.992 L14.14,4.208 L10.924,4.208 Z M19.072,17 L15.856,17 L15.856,5.792 L22.264,5.792 L22.264,7.4 L23.872,7.4 L23.872,17 L20.656,17 L20.656,7.4 L19.072,7.4 L19.072,17 Z M30.388,0.992 L30.388,5.792 L31.996,5.792 L31.996,7.4 L30.388,7.4 L30.388,15.392 L31.996,15.392 L31.996,17 L27.196,17 L27.196,7.4 L25.588,7.4 L25.588,5.792 L27.196,5.792 L27.196,2.6 L28.78,2.6 L28.78,0.992 L30.388,0.992 Z M41.728,5.792 L41.728,12.2 L36.928,12.2 L36.928,15.392 L38.512,15.392 L38.512,13.808 L41.728,13.808 L41.728,17 L35.32,17 L35.32,15.392 L33.712,15.392 L33.712,7.4 L35.32,7.4 L35.32,5.792 L41.728,5.792 Z M38.512,7.4 L36.928,7.4 L36.928,10.592 L38.512,10.592 L38.512,7.4 Z M46.66,17 L43.444,17 L43.444,5.792 L49.852,5.792 L49.852,7.4 L51.46,7.4 L51.46,17 L48.244,17 L48.244,7.4 L46.66,7.4 L46.66,17 Z M57.976,5.792 L57.976,0.992 L61.192,0.992 L61.192,17 L54.784,17 L54.784,15.392 L53.176,15.392 L53.176,7.4 L54.784,7.4 L54.784,5.792 L57.976,5.792 Z M54.784,13.808 L57.976,13.808 L57.976,9.008 L56.392,9.008 L56.392,10.592 L54.784,10.592 L54.784,13.808 Z M69.316,5.792 L69.316,7.4 L70.924,7.4 L70.924,15.392 L69.316,15.392 L69.316,17 L64.516,17 L64.516,15.392 L62.908,15.392 L62.908,7.4 L64.516,7.4 L64.516,5.792 L69.316,5.792 Z M66.124,15.392 L67.708,15.392 L67.708,7.4 L66.124,7.4 L66.124,15.392 Z M80.764,8.984 L80.764,16.976 L77.572,16.976 L77.572,-0.592 L85.564,-0.592 L85.564,0.992 L83.956,0.992 L83.956,2.6 L80.764,2.6 L80.764,7.4 L83.956,7.4 L83.956,8.984 L80.764,8.984 Z M91.664,5.792 L91.664,7.4 L93.272,7.4 L93.272,17 L85.28,17 L85.28,12.2 L86.864,12.2 L86.864,10.592 L90.08,10.592 L90.08,7.4 L88.472,7.4 L88.472,9.008 L85.28,9.008 L85.28,7.4 L86.864,7.4 L86.864,5.792 L91.664,5.792 Z M86.864,15.392 L90.08,15.392 L90.08,12.2 L88.472,12.2 L88.472,13.808 L86.864,13.808 L86.864,15.392 Z M98.204,17 L94.988,17 L94.988,5.792 L101.396,5.792 L101.396,7.4 L103.004,7.4 L103.004,17 L99.788,17 L99.788,7.4 L98.204,7.4 L98.204,17 Z M112.712,7.4 L112.712,9.008 L109.52,9.008 L109.52,7.4 L107.912,7.4 L107.912,10.592 L111.104,10.592 L111.104,12.2 L112.712,12.2 L112.712,15.392 L111.104,15.392 L111.104,17 L106.304,17 L106.304,15.392 L104.72,15.392 L104.72,13.808 L107.912,13.808 L107.912,15.392 L109.52,15.392 L109.52,12.2 L106.304,12.2 L106.304,10.592 L104.72,10.592 L104.72,7.4 L106.304,7.4 L106.304,5.792 L111.104,5.792 L111.104,7.4 L112.712,7.4 Z" id="Nintendo-Fans" fill="#322B2B"></path>
            <path d="M67.4076527,18.1479679 L115.652144,18.1479679 L115.652144,30.1479679 L67.4076527,30.1479679 L67.4076527,18.1479679 Z M73.6426767,25.8048755 C73.6426767,25.3888734 73.5626775,24.9968773 73.4026767,24.6288755 C73.2426759,24.2608737 73.0240115,23.9408769 72.7466767,23.6688755 C72.469342,23.3968741 72.1440119,23.1835429 71.7706767,23.0288755 C71.3973415,22.8742081 71.0026788,22.7968755 70.5866767,22.7968755 C70.3520089,22.7968755 70.1546775,22.7248762 69.9946767,22.5808755 C69.8346759,22.4368748 69.7546767,22.2528766 69.7546767,22.0288755 C69.7546767,21.9755419 69.7653433,21.8955427 69.7866767,21.7888755 C69.8400103,21.618208 69.9413427,21.4795427 70.0906767,21.3728755 C70.2400108,21.2662083 70.4053425,21.2128755 70.5866767,21.2128755 C70.8106779,21.2128755 71.0026759,21.2928747 71.1626767,21.4528755 C71.3226775,21.6128763 71.4026767,21.8048744 71.4026767,22.0288755 L73.6426767,22.0288755 C73.6426767,21.6128734 73.5626775,21.2182107 73.4026767,20.8448755 C73.2426759,20.4715403 73.0240115,20.1435436 72.7466767,19.8608755 C72.469342,19.5782074 72.1440119,19.3568763 71.7706767,19.1968755 C71.3973415,19.0368747 71.0026788,18.9568755 70.5866767,18.9568755 C70.2453417,18.9568755 69.917345,19.0102083 69.6026767,19.1168755 C69.2880085,19.2235427 69.002678,19.3728745 68.7466767,19.5648755 C68.4906755,19.7568765 68.2693443,19.9862075 68.0826767,20.2528755 C67.8960091,20.5195435 67.7546772,20.8075406 67.6586767,21.1168755 C67.5626763,21.4048769 67.5146767,21.7088739 67.5146767,22.0288755 C67.5146767,22.4555443 67.5973426,22.850207 67.7626767,23.2128755 C67.9280109,23.575544 68.149342,23.8928741 68.4266767,24.1648755 C68.7040115,24.4368769 69.0266749,24.6502081 69.3946767,24.8048755 C69.7626786,24.9595429 70.1600079,25.0368755 70.5866767,25.0368755 C70.8106779,25.0368755 71.0026759,25.1088748 71.1626767,25.2528755 C71.3226775,25.3968762 71.4026767,25.5862077 71.4026767,25.8208755 C71.4026767,25.8742091 71.3920102,25.9542083 71.3706767,26.0608755 C71.3173431,26.231543 71.2186775,26.3702083 71.0746767,26.4768755 C70.930676,26.5835427 70.768011,26.6368755 70.5866767,26.6368755 C70.3520089,26.6368755 70.1546775,26.5568763 69.9946767,26.3968755 C69.8346759,26.2368747 69.7546767,26.0395433 69.7546767,25.8048755 L67.5146767,25.8048755 C67.5146767,26.2315443 67.5946759,26.6315403 67.7546767,27.0048755 C67.9146775,27.3782107 68.133342,27.7035408 68.4106767,27.9808755 C68.6880115,28.2582102 69.0133415,28.4768747 69.3866767,28.6368755 C69.7600119,28.7968763 70.1600079,28.8768755 70.5866767,28.8768755 C70.9280118,28.8768755 71.2560085,28.8235427 71.5706767,28.7168755 C71.885345,28.6102083 72.1706755,28.4608765 72.4266767,28.2688755 C72.682678,28.0768745 72.9040091,27.8475435 73.0906767,27.5808755 C73.2773443,27.3142075 73.4186763,27.0262104 73.5146767,26.7168755 C73.6000105,26.4075406 73.6426767,26.1035437 73.6426767,25.8048755 Z M79.5626767,23.9168755 L82.2346767,18.9408755 L79.9946767,18.9408755 L78.4426767,21.8208755 L76.8906767,18.9408755 L74.6506767,18.9408755 L77.3226767,23.9008755 L77.3226767,28.8608755 L79.5626767,28.8608755 L79.5626767,23.9168755 Z M89.1626767,27.4368755 C89.6426791,26.9568731 90.0053422,26.4182118 90.2506767,25.8208755 C90.4960113,25.2235392 90.6186767,24.5888789 90.6186767,23.9168755 C90.6186767,23.2448721 90.4960113,22.6102118 90.2506767,22.0128755 C90.0053422,21.4155392 89.6426791,20.8822112 89.1626767,20.4128755 C88.6826743,19.9328731 88.1386798,19.5702101 87.5306767,19.3248755 C86.9226737,19.0795409 86.2826801,18.9568755 85.6106767,18.9568755 L83.6106767,18.9568755 L83.6106767,28.8768755 L85.9146767,28.8768755 C86.5226798,28.8448753 87.1040073,28.7062101 87.6586767,28.4608755 C88.2133462,28.2155409 88.7146745,27.874211 89.1626767,27.4368755 Z M99.0186767,28.8608755 L99.0186767,18.9408755 L96.7786767,18.9408755 L96.7786767,24.4768755 L93.9946767,18.9408755 L91.7066767,18.9408755 L91.7066767,28.8608755 L93.9466767,28.8608755 L93.9466767,23.3248755 L96.7466767,28.8608755 L99.0186767,28.8608755 Z M106.042677,21.1808755 L106.042677,18.9408755 L99.9626767,18.9408755 L99.9626767,28.8608755 L106.042677,28.8608755 L106.042677,26.6208755 L102.202677,26.6208755 L102.202677,25.0208755 L105.034677,25.0208755 L105.034677,22.7808755 L102.202677,22.7808755 L102.202677,21.1808755 L106.042677,21.1808755 Z M111.866677,23.9168755 L114.538677,18.9408755 L112.298677,18.9408755 L110.746677,21.8208755 L109.194677,18.9408755 L106.954677,18.9408755 L109.626677,23.9008755 L109.626677,28.8608755 L111.866677,28.8608755 L111.866677,23.9168755 Z" id="Sydney" fill="#FD4F4F" transform="translate(91.529899, 24.147968) rotate(-3.000000) translate(-91.529899, -24.147968) "></path>
        </g>
    </g>
</svg>