<svg xmlns="http://www.w3.org/2000/svg" width="32" height="32" viewBox="0 0 32 32">
  <path d="M26,9.97303479 C25.2651288,10.3076923 24.4739097,10.5340075 23.6439514,10.635127 C24.4915185,10.1150837 25.1418677,9.29047791 25.4482597,8.30817383 C24.6546927,8.78969544 23.7777778,9.14000241 22.8409931,9.32779583 C22.0943828,8.5104129 21.0272935,8 19.8463344,8 C17.5818513,8 15.7446734,9.88395329 15.7446734,12.2072951 C15.7446734,12.5371374 15.7798908,12.8573492 15.8503258,13.1655231 C12.440101,12.9897677 9.4172683,11.3164801 7.3922639,8.76802697 C7.0389153,9.39159745 6.83700182,10.1150837 6.83700182,10.8855182 C6.83700182,12.3445287 7.56130774,13.632599 8.66244057,14.3873841 C7.99096085,14.3669195 7.35704643,14.1755146 6.80295827,13.8625256 L6.80295827,13.9142892 C6.80295827,15.9535332 8.21752656,17.6545082 10.0957915,18.0397255 C9.75183424,18.1384375 9.38909432,18.1877934 9.01461525,18.1877934 C8.75048424,18.1877934 8.49222281,18.1625135 8.24217879,18.1131576 C8.76457123,19.7840376 10.2789223,21.0010834 12.0750132,21.0335861 C10.6710102,22.1627543 8.90074544,22.8356808 6.97904561,22.8356808 C6.64800141,22.8356808 6.32047896,22.8164199 6,22.7778982 C7.81604743,23.9696641 9.97370429,24.6666667 12.2898398,24.6666667 C19.838117,24.6666667 23.9644304,18.2564103 23.9644304,12.6960395 C23.9644304,12.5130613 23.9609086,12.3300831 23.9538651,12.1507163 C24.7556495,11.5572409 25.4517814,10.8169014 26,9.97303479"/>
</svg>
