<svg viewBox="0 0 16 16">
  <path d="M8.5,8.5 L9.7,7.6 C9.9209139,7.43431458 10.2343146,7.4790861 10.4,7.7 C10.5656854,7.9209139 10.5209139,8.23431458 10.3,8.4 L8.30404051,9.89696962 C8.21979319,9.9615921 8.11438192,10 8,10 C7.72385763,10 7.5,9.77614237 7.5,9.5 C7.49997201,9.49831618 7.49998177,9.49663262 7.5,9.49494937 L7.5,5.5 C7.5,5.22385763 7.72385763,5 8,5 C8.27614237,5 8.5,5.22385763 8.5,5.5 L8.5,8.5 Z M8,14 C4.6862915,14 2,11.3137085 2,8 C2,4.6862915 4.6862915,2 8,2 C11.3137085,2 14,4.6862915 14,8 C14,11.3137085 11.3137085,14 8,14 Z M8,13 C10.7614237,13 13,10.7614237 13,8 C13,5.23857625 10.7614237,3 8,3 C5.23857625,3 3,5.23857625 3,8 C3,10.7614237 5.23857625,13 8,13 Z"/>
</svg>
